<svg xmlns="http://www.w3.org/2000/svg" xmlns:xlink="http://www.w3.org/1999/xlink" width="500" zoomAndPan="magnify" viewBox="0 0 375 374.999991" height="500" preserveAspectRatio="xMidYMid meet" version="1.0"><defs><clipPath id="3dafe0795b"><path d="M 112.441406 108.886719 L 267.074219 108.886719 L 267.074219 263.632812 L 112.441406 263.632812 Z M 112.441406 108.886719 " clip-rule="nonzero"/></clipPath><clipPath id="b18622f56b"><path d="M 107.910156 234.703125 L 205.496094 234.703125 L 205.496094 266.089844 L 107.910156 266.089844 Z M 107.910156 234.703125 " clip-rule="nonzero"/></clipPath></defs><rect x="-37.5" width="450" fill="#ffffff" y="-37.499999" height="449.999989" fill-opacity="1"/><rect x="-37.5" width="450" fill="#ffffff" y="-37.499999" height="449.999989" fill-opacity="1"/><g clip-path="url(#3dafe0795b)"><path fill="#1e2123" d="M 262.195312 224.609375 L 194.910156 224.609375 L 145.796875 202.4375 L 138.164062 219.347656 L 149.816406 224.609375 L 136.925781 224.609375 C 126.117188 224.609375 117.324219 215.59375 117.324219 204.511719 L 117.324219 204.507812 C 117.324219 193.425781 126.117188 184.410156 136.925781 184.410156 C 147.734375 184.410156 156.527344 193.429688 156.527344 204.511719 L 161.40625 204.511719 L 161.40625 133.867188 C 161.40625 129.164062 160.128906 124.757812 157.914062 121 L 262.195312 121 Z M 233.242188 256.917969 L 144.617188 216.90625 L 148.238281 208.890625 L 155.964844 212.378906 L 154.15625 216.390625 L 158.605469 218.398438 L 160.414062 214.390625 L 173.015625 220.078125 L 171.203125 224.085938 L 175.652344 226.089844 L 177.460938 222.085938 L 190.0625 227.773438 L 188.253906 231.78125 L 192.699219 233.789062 L 194.507812 229.78125 L 207.109375 235.46875 L 205.300781 239.476562 L 209.746094 241.484375 L 211.554688 237.476562 L 224.15625 243.164062 L 222.347656 247.171875 L 226.792969 249.179688 L 228.601562 245.171875 L 236.863281 248.902344 Z M 117.527344 133.972656 C 117.679688 132.136719 118.089844 128.808594 118.566406 127.375 C 121.257812 119.234375 128.675781 113.765625 137.027344 113.765625 C 147.78125 113.765625 156.527344 122.78125 156.527344 133.867188 L 156.527344 189.5625 C 152.058594 183.476562 144.933594 179.53125 136.925781 179.53125 C 128.941406 179.53125 121.839844 183.453125 117.367188 189.507812 Z M 267.074219 116.117188 L 154.164062 116.117188 C 149.757812 111.652344 143.703125 108.886719 137.027344 108.886719 C 126.566406 108.886719 117.285156 115.703125 113.933594 125.839844 C 113.109375 128.324219 112.699219 133.128906 112.65625 133.667969 L 112.648438 133.761719 L 112.445312 204.503906 C 112.445312 204.507812 112.445312 204.507812 112.445312 204.511719 C 112.445312 218.285156 123.425781 229.488281 136.925781 229.488281 L 160.625 229.488281 L 235.683594 263.371094 L 243.316406 246.460938 L 205.714844 229.488281 L 267.074219 229.488281 L 267.074219 116.117188 " fill-opacity="1" fill-rule="nonzero"/></g><path fill="#1e2123" d="M 188.011719 152.601562 L 207.015625 136.308594 L 227.445312 152.652344 L 227.445312 191.824219 L 219.003906 191.824219 L 219.003906 167.472656 L 196.449219 167.472656 L 196.449219 191.824219 L 188.011719 191.824219 Z M 183.132812 196.703125 L 201.328125 196.703125 L 201.328125 172.351562 L 214.125 172.351562 L 214.125 196.703125 L 232.324219 196.703125 L 232.324219 150.308594 L 206.910156 129.972656 L 183.132812 150.355469 L 183.132812 196.703125 " fill-opacity="1" fill-rule="nonzero"/><path fill="#1e2123" d="M 252.464844 206.351562 L 248.457031 206.351562 L 248.457031 211.230469 L 252.464844 211.230469 L 252.464844 206.351562 " fill-opacity="1" fill-rule="nonzero"/><path fill="#1e2123" d="M 245.234375 206.351562 L 235.214844 206.351562 L 235.214844 211.230469 L 245.234375 211.230469 L 245.234375 206.351562 " fill-opacity="1" fill-rule="nonzero"/><path fill="#1e2123" d="M 245.234375 214.191406 L 235.214844 214.191406 L 235.214844 219.070312 L 245.234375 219.070312 L 245.234375 214.191406 " fill-opacity="1" fill-rule="nonzero"/><path fill="#1e2123" d="M 185.570312 211.230469 L 217.785156 211.230469 L 217.785156 206.351562 L 185.570312 206.351562 L 185.570312 211.230469 " fill-opacity="1" fill-rule="nonzero"/><path fill="#1e2123" d="M 185.570312 127.121094 L 171.609375 127.121094 L 171.609375 132 L 185.570312 132 L 185.570312 127.121094 " fill-opacity="1" fill-rule="nonzero"/><g clip-path="url(#b18622f56b)"><path fill="#1e2123" d="M 199.316406 261.03125 L 193.449219 259.636719 L 194.421875 255.539062 L 200.289062 256.933594 Z M 130.050781 240.230469 L 189.675781 254.40625 L 188.699219 258.507812 L 129.078125 244.328125 Z M 125.042969 240.207031 L 124.589844 242.105469 L 122.136719 240.515625 Z M 202.273438 252.390625 L 190.804688 249.660156 L 129.160156 235 C 128.734375 234.898438 128.308594 234.90625 127.910156 234.992188 L 107.910156 237.125 L 125.023438 248.195312 C 125.292969 248.375 125.59375 248.515625 125.929688 248.59375 L 192.320312 264.382812 L 199.039062 265.980469 C 199.347656 266.054688 199.664062 266.089844 199.972656 266.089844 C 200.707031 266.089844 201.425781 265.890625 202.0625 265.496094 C 202.976562 264.9375 203.613281 264.054688 203.859375 263.015625 L 205.238281 257.207031 C 205.75 255.0625 204.417969 252.898438 202.273438 252.390625 " fill-opacity="1" fill-rule="nonzero"/></g></svg>