<svg xmlns="http://www.w3.org/2000/svg" xmlns:xlink="http://www.w3.org/1999/xlink" width="500" zoomAndPan="magnify" viewBox="0 0 375 374.999991" height="500" preserveAspectRatio="xMidYMid meet" version="1.0"><defs><clipPath id="b66b78842f"><path d="M 100.667969 101.207031 L 274 101.207031 L 274 273.707031 L 100.667969 273.707031 Z M 100.667969 101.207031 " clip-rule="nonzero"/></clipPath></defs><rect x="-37.5" width="450" fill="#ffffff" y="-37.499999" height="449.999989" fill-opacity="1"/><rect x="-37.5" width="450" fill="#ffffff" y="-37.499999" height="449.999989" fill-opacity="1"/><g clip-path="url(#b66b78842f)"><path fill="#000000" d="M 160.640625 127.160156 C 158.394531 127.160156 156.386719 128.316406 155.265625 130.25 L 131.390625 171.5 C 130.269531 173.441406 130.265625 175.757812 131.386719 177.695312 C 132.507812 179.628906 134.519531 180.785156 136.765625 180.785156 L 184.511719 180.785156 C 186.761719 180.785156 188.773438 179.628906 189.894531 177.695312 C 191.015625 175.757812 191.011719 173.441406 189.886719 171.5 L 166.015625 130.25 C 164.894531 128.316406 162.886719 127.160156 160.640625 127.160156 Z M 185.648438 175.25 C 185.535156 175.445312 185.199219 175.898438 184.511719 175.898438 L 136.765625 175.898438 C 136.078125 175.898438 135.742188 175.445312 135.628906 175.25 C 135.519531 175.054688 135.292969 174.535156 135.636719 173.945312 L 159.507812 132.695312 C 159.847656 132.109375 160.414062 132.046875 160.640625 132.046875 C 160.867188 132.046875 161.433594 132.109375 161.769531 132.695312 L 185.644531 173.945312 C 185.988281 174.535156 185.761719 175.054688 185.648438 175.25 Z M 271.398438 164.875 L 220.527344 164.875 L 220.527344 159.953125 C 220.527344 159.90625 220.519531 159.859375 220.515625 159.8125 C 220.304688 148.582031 217.019531 137.871094 210.964844 128.550781 L 249.964844 128.550781 L 249.964844 133.472656 C 249.964844 134.402344 250.492188 135.25 251.324219 135.664062 C 251.671875 135.835938 252.042969 135.917969 252.414062 135.917969 C 252.941406 135.917969 253.460938 135.75 253.898438 135.421875 L 272.878906 121.039062 C 273.488281 120.578125 273.847656 119.855469 273.847656 119.09375 C 273.847656 118.328125 273.488281 117.609375 272.878906 117.144531 L 253.898438 102.765625 C 253.15625 102.203125 252.160156 102.109375 251.324219 102.519531 C 250.492188 102.933594 249.964844 103.78125 249.964844 104.710938 L 249.964844 109.632812 L 199.09375 109.632812 C 197.738281 109.632812 196.640625 110.726562 196.640625 112.078125 L 196.640625 113.210938 C 186.300781 105.441406 173.699219 101.207031 160.640625 101.207031 C 127.617188 101.207031 100.75 128.011719 100.75 160.953125 C 100.75 193.898438 127.617188 220.699219 160.640625 220.699219 C 173.117188 220.699219 185.03125 216.792969 194.90625 209.921875 L 206.03125 221.015625 C 204.875 224.433594 205.660156 228.367188 208.382812 231.085938 L 248.242188 270.847656 C 250.09375 272.691406 252.558594 273.707031 255.1875 273.707031 C 257.8125 273.707031 260.28125 272.691406 262.128906 270.847656 L 270.800781 262.195312 C 274.628906 258.378906 274.628906 252.164062 270.800781 248.347656 L 230.941406 208.582031 C 228.214844 205.863281 224.273438 205.082031 220.847656 206.234375 L 209.746094 195.160156 C 211.222656 193.054688 212.570312 190.839844 213.777344 188.53125 L 216.59375 190.664062 C 217.027344 190.992188 217.550781 191.160156 218.074219 191.160156 C 218.445312 191.160156 218.820312 191.078125 219.164062 190.90625 C 219.996094 190.492188 220.527344 189.644531 220.527344 188.714844 L 220.527344 183.792969 L 271.398438 183.792969 C 272.75 183.792969 273.847656 182.699219 273.847656 181.347656 L 273.847656 167.320312 C 273.847656 165.96875 272.75 164.875 271.398438 164.875 Z M 201.542969 114.523438 L 252.414062 114.523438 C 253.769531 114.523438 254.863281 113.429688 254.863281 112.078125 L 254.863281 109.636719 L 267.347656 119.09375 L 254.863281 128.546875 L 254.863281 126.105469 C 254.863281 124.757812 253.769531 123.664062 252.414062 123.664062 L 201.542969 123.664062 Z M 227.476562 212.039062 L 267.335938 251.804688 C 269.253906 253.714844 269.253906 256.828125 267.335938 258.738281 L 258.664062 267.390625 C 257.738281 268.3125 256.503906 268.820312 255.1875 268.820312 C 253.867188 268.820312 252.632812 268.3125 251.710938 267.390625 L 211.847656 227.628906 C 209.933594 225.714844 209.933594 222.605469 211.847656 220.691406 L 220.523438 212.039062 C 222.441406 210.125 225.558594 210.125 227.476562 212.039062 Z M 216.664062 208.976562 L 208.777344 216.84375 L 198.84375 206.933594 C 201.703125 204.574219 204.351562 201.945312 206.742188 199.078125 Z M 160.640625 215.8125 C 130.316406 215.8125 105.648438 191.203125 105.648438 160.953125 C 105.648438 130.707031 130.316406 106.097656 160.640625 106.097656 C 173.902344 106.097656 186.648438 110.851562 196.640625 119.492188 L 196.640625 126.105469 C 196.640625 127.457031 197.738281 128.550781 199.09375 128.550781 L 205.011719 128.550781 C 211.515625 137.394531 215.15625 147.796875 215.582031 158.773438 L 206.636719 165.550781 C 206.789062 164.023438 206.871094 162.488281 206.871094 160.953125 C 206.871094 135.523438 186.132812 114.835938 160.640625 114.835938 C 135.148438 114.835938 114.410156 135.523438 114.410156 160.953125 C 114.410156 186.382812 135.148438 207.074219 160.640625 207.074219 C 170.242188 207.074219 179.449219 204.164062 187.269531 198.660156 C 194.015625 193.910156 199.296875 187.546875 202.691406 180.132812 L 209.816406 185.527344 C 200.527344 203.988281 181.4375 215.8125 160.640625 215.8125 Z M 201.007812 169.816406 L 197.609375 172.390625 C 197 172.851562 196.640625 173.570312 196.640625 174.335938 C 196.640625 175.097656 197 175.820312 197.609375 176.28125 L 198.679688 177.089844 C 192.242188 192.171875 177.179688 202.183594 160.640625 202.183594 C 137.851562 202.183594 119.308594 183.6875 119.308594 160.953125 C 119.308594 138.21875 137.851562 119.722656 160.640625 119.722656 C 183.429688 119.722656 201.96875 138.21875 201.96875 160.953125 C 201.96875 163.9375 201.644531 166.914062 201.007812 169.816406 Z M 268.949219 178.90625 L 218.074219 178.90625 C 216.722656 178.90625 215.625 180 215.625 181.347656 L 215.625 183.792969 L 203.144531 174.335938 L 215.625 164.878906 L 215.625 167.320312 C 215.625 168.671875 216.722656 169.765625 218.074219 169.765625 L 268.949219 169.765625 Z M 160.640625 137.628906 C 161.992188 137.628906 163.089844 138.726562 163.089844 140.074219 L 163.089844 164.445312 C 163.089844 165.796875 161.992188 166.890625 160.640625 166.890625 C 159.285156 166.890625 158.191406 165.796875 158.191406 164.445312 L 158.191406 140.074219 C 158.191406 138.726562 159.285156 137.628906 160.640625 137.628906 Z M 163.089844 171.246094 C 163.089844 172.589844 161.988281 173.6875 160.640625 173.6875 C 159.289062 173.6875 158.191406 172.589844 158.191406 171.246094 C 158.191406 169.898438 159.289062 168.800781 160.640625 168.800781 C 161.988281 168.800781 163.089844 169.898438 163.089844 171.246094 Z M 163.089844 171.246094 " fill-opacity="1" fill-rule="evenodd"/></g></svg>