<svg xmlns="http://www.w3.org/2000/svg" xmlns:xlink="http://www.w3.org/1999/xlink" width="500" zoomAndPan="magnify" viewBox="0 0 375 374.999991" height="500" preserveAspectRatio="xMidYMid meet" version="1.0"><defs><clipPath id="1ce1116668"><path d="M 108.398438 101.207031 L 266.648438 101.207031 L 266.648438 273.707031 L 108.398438 273.707031 Z M 108.398438 101.207031 " clip-rule="nonzero"/></clipPath></defs><rect x="-37.5" width="450" fill="#ffffff" y="-37.499999" height="449.999989" fill-opacity="1"/><rect x="-37.5" width="450" fill="#ffffff" y="-37.499999" height="449.999989" fill-opacity="1"/><g clip-path="url(#1ce1116668)"><path fill="#1e2123" d="M 266.574219 104.871094 C 266.570312 104.742188 266.554688 104.613281 266.535156 104.484375 C 266.527344 104.445312 266.523438 104.40625 266.515625 104.367188 C 266.484375 104.222656 266.445312 104.082031 266.390625 103.9375 C 266.386719 103.929688 266.378906 103.921875 266.375 103.914062 C 266.359375 103.875 266.339844 103.835938 266.316406 103.792969 C 266.265625 103.6875 266.214844 103.582031 266.148438 103.488281 C 266.121094 103.441406 266.089844 103.398438 266.058594 103.355469 C 265.988281 103.261719 265.917969 103.171875 265.839844 103.089844 C 265.808594 103.054688 265.78125 103.019531 265.746094 102.988281 C 265.632812 102.878906 265.515625 102.777344 265.386719 102.691406 C 265.363281 102.679688 265.335938 102.664062 265.316406 102.652344 C 265.207031 102.582031 265.09375 102.515625 264.972656 102.464844 C 264.921875 102.445312 264.875 102.421875 264.824219 102.40625 C 264.714844 102.363281 264.605469 102.332031 264.492188 102.304688 C 264.441406 102.292969 264.398438 102.277344 264.351562 102.269531 C 264.203125 102.242188 264.046875 102.21875 263.886719 102.214844 L 193.433594 101.207031 C 192.753906 101.195312 192.085938 101.445312 191.574219 101.898438 L 109.320312 175.019531 C 109.296875 175.039062 109.277344 175.0625 109.253906 175.085938 C 109.214844 175.125 109.179688 175.164062 109.140625 175.203125 C 109.0625 175.289062 108.996094 175.371094 108.929688 175.460938 C 108.898438 175.5 108.867188 175.542969 108.839844 175.589844 C 108.765625 175.703125 108.703125 175.820312 108.648438 175.941406 C 108.640625 175.964844 108.625 175.984375 108.613281 176.007812 C 108.554688 176.152344 108.507812 176.304688 108.472656 176.460938 C 108.464844 176.507812 108.457031 176.554688 108.449219 176.601562 C 108.429688 176.726562 108.414062 176.847656 108.410156 176.972656 C 108.410156 177.003906 108.402344 177.027344 108.402344 177.058594 L 108.402344 195.105469 C 108.402344 196.613281 109.625 197.835938 111.136719 197.835938 L 136.410156 197.835938 L 136.410156 224.171875 L 109.15625 252.738281 C 109.113281 252.789062 109.078125 252.84375 109.035156 252.894531 C 108.96875 252.972656 108.902344 253.054688 108.847656 253.140625 C 108.796875 253.210938 108.761719 253.292969 108.722656 253.367188 C 108.679688 253.445312 108.636719 253.527344 108.601562 253.613281 C 108.566406 253.699219 108.546875 253.789062 108.519531 253.875 C 108.496094 253.957031 108.464844 254.035156 108.453125 254.125 C 108.433594 254.226562 108.429688 254.332031 108.421875 254.4375 C 108.414062 254.503906 108.402344 254.5625 108.402344 254.628906 L 108.402344 271.058594 C 108.402344 272.566406 109.625 273.789062 111.136719 273.789062 L 187.488281 273.789062 C 187.496094 273.789062 187.5 273.789062 187.507812 273.789062 C 187.683594 273.789062 187.859375 273.773438 188.035156 273.738281 C 188.175781 273.710938 188.308594 273.664062 188.441406 273.613281 C 188.480469 273.601562 188.515625 273.59375 188.550781 273.582031 C 188.71875 273.511719 188.875 273.421875 189.023438 273.320312 C 189.066406 273.292969 189.105469 273.253906 189.144531 273.222656 C 189.25 273.140625 189.351562 273.058594 189.441406 272.964844 C 189.449219 272.957031 189.460938 272.953125 189.46875 272.941406 L 264.746094 193.757812 C 265.230469 193.25 265.5 192.574219 265.5 191.871094 L 265.5 177.058594 C 265.5 177.03125 265.492188 177.003906 265.492188 176.972656 C 265.488281 176.847656 265.476562 176.722656 265.453125 176.597656 C 265.449219 176.546875 265.4375 176.496094 265.425781 176.449219 C 265.394531 176.308594 265.355469 176.175781 265.300781 176.042969 C 265.292969 176.019531 265.285156 175.996094 265.273438 175.972656 C 265.210938 175.828125 265.140625 175.699219 265.058594 175.570312 C 265.03125 175.53125 265.003906 175.492188 264.972656 175.453125 C 264.902344 175.359375 264.828125 175.269531 264.753906 175.1875 C 264.71875 175.152344 264.6875 175.117188 264.652344 175.085938 C 264.554688 174.992188 264.449219 174.90625 264.339844 174.824219 C 264.320312 174.8125 264.304688 174.796875 264.285156 174.785156 C 264.152344 174.699219 264.015625 174.625 263.875 174.558594 C 263.828125 174.539062 263.785156 174.523438 263.738281 174.507812 C 263.628906 174.464844 263.519531 174.433594 263.402344 174.402344 C 263.355469 174.394531 263.308594 174.378906 263.253906 174.371094 C 263.09375 174.339844 262.929688 174.320312 262.765625 174.320312 L 238.027344 174.320312 L 238.027344 148.097656 C 238.027344 148.0625 238.015625 148.027344 238.015625 147.988281 L 265.796875 119.722656 C 266.296875 119.210938 266.578125 118.523438 266.578125 117.808594 L 266.578125 104.945312 C 266.578125 104.921875 266.574219 104.898438 266.574219 104.871094 Z M 194.417969 106.695312 L 257.203125 107.585938 L 187.074219 175.652344 L 118.1875 174.449219 Z M 136.410156 232.097656 L 136.410156 251.898438 L 117.523438 251.898438 Z M 184.753906 268.324219 L 113.867188 268.324219 L 113.867188 257.359375 L 139.144531 257.359375 C 140.652344 257.359375 141.878906 256.136719 141.878906 254.628906 L 141.878906 195.105469 C 141.878906 193.597656 140.652344 192.375 139.144531 192.375 L 113.867188 192.375 L 113.867188 179.84375 L 185.429688 181.09375 L 185.429688 192.101562 L 156.382812 192.101562 C 154.875 192.101562 153.648438 193.324219 153.648438 194.835938 L 153.648438 255.164062 C 153.648438 255.214844 153.660156 255.253906 153.664062 255.304688 C 153.667969 255.433594 153.675781 255.566406 153.699219 255.695312 C 153.71875 255.777344 153.75 255.855469 153.769531 255.933594 C 153.796875 256.023438 153.816406 256.113281 153.851562 256.203125 C 153.890625 256.289062 153.9375 256.375 153.988281 256.457031 C 154.023438 256.527344 154.058594 256.601562 154.105469 256.671875 C 154.179688 256.785156 154.269531 256.886719 154.359375 256.988281 C 154.386719 257.019531 154.40625 257.054688 154.4375 257.085938 C 154.4375 257.085938 154.441406 257.089844 154.441406 257.089844 C 154.570312 257.214844 154.707031 257.328125 154.859375 257.433594 C 154.921875 257.476562 154.992188 257.503906 155.058594 257.539062 C 155.148438 257.59375 155.238281 257.648438 155.332031 257.683594 C 155.421875 257.722656 155.511719 257.742188 155.605469 257.769531 C 155.683594 257.792969 155.765625 257.824219 155.847656 257.839844 C 156.023438 257.875 156.203125 257.894531 156.386719 257.894531 L 184.757812 257.894531 L 184.757812 268.324219 Z M 190.226562 264.210938 L 190.226562 256.269531 L 260.035156 183.835938 L 260.035156 190.78125 Z M 186.328125 252.433594 L 163.03125 252.433594 L 236.417969 179.796875 L 256.335938 179.796875 Z M 232.5625 175.917969 L 159.117188 248.613281 L 159.117188 197.570312 L 188.160156 197.570312 C 188.339844 197.570312 188.523438 197.554688 188.699219 197.515625 C 188.789062 197.5 188.871094 197.464844 188.957031 197.441406 C 189.042969 197.414062 189.128906 197.394531 189.214844 197.359375 C 189.324219 197.316406 189.425781 197.253906 189.527344 197.195312 C 189.582031 197.164062 189.640625 197.144531 189.6875 197.109375 C 189.839844 197.007812 189.976562 196.890625 190.105469 196.765625 C 190.109375 196.761719 190.113281 196.761719 190.117188 196.757812 L 232.5625 153.554688 Z M 190.898438 188.152344 L 190.898438 179.5625 L 261.113281 111.410156 L 261.113281 116.6875 Z M 190.898438 188.152344 " fill-opacity="1" fill-rule="nonzero"/></g></svg>