<svg xmlns="http://www.w3.org/2000/svg" xmlns:xlink="http://www.w3.org/1999/xlink" width="500" zoomAndPan="magnify" viewBox="0 0 375 374.999991" height="500" preserveAspectRatio="xMidYMid meet" version="1.0"><defs><clipPath id="1629343cec"><path d="M 224 83.292969 L 269 83.292969 L 269 174 L 224 174 Z M 224 83.292969 " clip-rule="nonzero"/></clipPath><clipPath id="f778c2df0e"><path d="M 254 162 L 292.371094 162 L 292.371094 222 L 254 222 Z M 254 162 " clip-rule="nonzero"/></clipPath><clipPath id="c1db108628"><path d="M 177 220 L 277 220 L 277 291.792969 L 177 291.792969 Z M 177 220 " clip-rule="nonzero"/></clipPath></defs><rect x="-37.5" width="450" fill="#ffffff" y="-37.499999" height="449.999989" fill-opacity="1"/><rect x="-37.5" width="450" fill="#ffffff" y="-37.499999" height="449.999989" fill-opacity="1"/><path fill="#000000" d="M 151.027344 215.070312 C 151.515625 216.046875 152.488281 216.699219 153.464844 216.863281 C 153.464844 216.863281 217.703125 226.3125 217.867188 226.3125 C 219.003906 226.3125 220.140625 225.660156 220.792969 224.683594 L 234.289062 200.574219 L 239.820312 205.625 C 240.46875 206.113281 241.285156 206.4375 241.933594 206.4375 C 242.746094 206.4375 243.722656 206.113281 244.375 205.296875 C 245.511719 203.996094 245.511719 201.878906 244.210938 200.738281 C 244.210938 200.738281 212.5 172.066406 212.5 172.066406 C 211.523438 170.929688 209.898438 171.417969 209.898438 171.417969 L 157.695312 180.863281 C 155.90625 181.191406 154.765625 182.820312 155.089844 184.609375 C 155.417969 186.238281 156.71875 187.21875 158.34375 187.21875 C 158.507812 187.21875 165.988281 185.914062 165.988281 185.914062 L 151.1875 212.140625 C 150.699219 213.117188 150.539062 214.09375 151.027344 215.070312 Z M 174.445312 184.449219 L 209.570312 178.09375 L 229.410156 196.011719 L 216.078125 219.632812 L 159.15625 211.160156 Z M 174.445312 184.449219 " fill-opacity="1" fill-rule="nonzero"/><path fill="#000000" d="M 213.148438 196.339844 C 211.523438 195.523438 209.570312 196.175781 208.757812 197.804688 L 204.855469 205.296875 L 185.175781 202.203125 L 187.617188 197.804688 C 188.429688 196.175781 187.941406 194.222656 186.316406 193.40625 C 184.691406 192.59375 182.738281 193.082031 181.925781 194.710938 L 177.046875 203.179688 C 176.558594 204.15625 176.558594 205.296875 176.882812 206.273438 C 177.371094 207.253906 178.183594 207.902344 179.324219 208.066406 C 179.324219 208.066406 206.320312 212.140625 206.480469 212.140625 C 207.621094 212.140625 208.757812 211.488281 209.410156 210.347656 L 214.289062 200.898438 C 215.425781 199.109375 214.777344 197.152344 213.148438 196.339844 Z M 213.148438 196.339844 " fill-opacity="1" fill-rule="nonzero"/><g clip-path="url(#1629343cec)"><path fill="#000000" d="M 268.605469 136.394531 C 268.605469 134.601562 267.140625 133.136719 265.351562 133.136719 L 258.523438 133.136719 L 253.15625 114.242188 C 257.058594 111.960938 259.660156 107.890625 259.660156 103.003906 C 259.660156 96.976562 255.433594 91.925781 249.902344 90.460938 L 249.902344 86.550781 C 249.902344 84.757812 248.4375 83.292969 246.652344 83.292969 C 244.863281 83.292969 243.398438 84.757812 243.398438 86.550781 L 243.398438 90.460938 C 237.707031 91.925781 233.640625 96.976562 233.640625 103.003906 C 233.640625 107.726562 236.242188 111.960938 240.144531 114.242188 L 234.777344 133.136719 L 227.949219 133.136719 C 226.160156 133.136719 224.695312 134.601562 224.695312 136.394531 C 224.695312 138.1875 226.160156 139.652344 227.949219 139.652344 L 232.828125 139.652344 L 224.371094 169.460938 C 223.882812 171.253906 224.859375 173.046875 226.648438 173.535156 C 226.972656 173.695312 227.296875 173.695312 227.460938 173.695312 C 228.925781 173.695312 230.226562 172.71875 230.550781 171.253906 L 239.496094 139.652344 L 253.644531 139.652344 L 259.660156 160.828125 L 261.613281 167.671875 L 262.585938 171.253906 C 262.914062 172.71875 264.375 173.695312 265.679688 173.695312 C 266.003906 173.695312 266.328125 173.695312 266.492188 173.535156 C 268.28125 173.046875 269.253906 171.253906 268.769531 169.460938 L 268.117188 167.179688 L 266.652344 161.804688 L 260.472656 139.816406 L 265.351562 139.816406 C 267.140625 139.652344 268.605469 138.1875 268.605469 136.394531 Z M 241.445312 133.136719 L 246.324219 116.035156 C 246.488281 116.035156 246.488281 116.035156 246.652344 116.035156 C 246.8125 116.035156 246.8125 116.035156 246.976562 116.035156 L 251.855469 133.136719 Z M 246.652344 109.519531 C 243.074219 109.519531 240.144531 106.585938 240.144531 103.003906 C 240.144531 99.417969 243.074219 96.488281 246.652344 96.488281 C 250.226562 96.488281 253.15625 99.417969 253.15625 103.003906 C 253.15625 106.585938 250.226562 109.519531 246.652344 109.519531 Z M 246.652344 109.519531 " fill-opacity="1" fill-rule="nonzero"/></g><path fill="#000000" d="M 151.351562 172.71875 C 149.886719 171.742188 147.773438 172.066406 146.796875 173.695312 L 113.296875 224.191406 C 112.644531 225.171875 112.644531 226.3125 112.972656 227.289062 C 113.460938 228.265625 114.433594 229.078125 115.410156 229.242188 L 205.34375 242.925781 L 216.402344 238.039062 L 121.589844 223.542969 L 152.328125 177.28125 C 153.300781 175.816406 152.976562 173.695312 151.351562 172.71875 Z M 151.351562 172.71875 " fill-opacity="1" fill-rule="nonzero"/><path fill="#000000" d="M 84.347656 216.699219 C 82.398438 227.941406 89.714844 238.527344 100.773438 240.480469 C 100.9375 240.480469 182.902344 252.699219 182.902344 252.699219 L 194.121094 247.8125 C 194.121094 247.8125 102.238281 234.128906 101.914062 234.128906 C 94.433594 232.828125 89.390625 225.496094 90.691406 218.003906 C 91.34375 214.417969 94.105469 211 98.007812 209.042969 C 100.613281 207.742188 106.140625 205.949219 112.972656 209.371094 C 114.433594 210.183594 116.222656 209.695312 117.199219 208.230469 L 153.140625 153.988281 L 219.492188 162.292969 L 221.28125 155.941406 L 157.042969 147.796875 L 170.378906 127.597656 C 171.355469 126.132812 171.027344 124.015625 169.402344 123.039062 C 169.078125 122.875 168.425781 122.550781 168.425781 122.550781 C 153.464844 117.011719 141.59375 127.273438 137.367188 133.464844 L 87.601562 208.882812 C 87.4375 209.207031 84.835938 214.417969 84.347656 216.699219 Z M 143.058594 137.371094 C 143.382812 136.882812 151.027344 126.132812 162.574219 127.925781 L 113.132812 202.367188 C 108.90625 200.898438 104.515625 200.574219 100.449219 201.386719 Z M 143.058594 137.371094 " fill-opacity="1" fill-rule="nonzero"/><g clip-path="url(#f778c2df0e)"><path fill="#000000" d="M 264.375 216.699219 L 291.699219 169.460938 C 292.1875 168.484375 292.347656 167.34375 291.859375 166.367188 C 291.371094 165.390625 290.398438 164.738281 289.421875 164.574219 L 273.808594 162.621094 L 275.273438 167.671875 C 275.433594 168.320312 275.597656 168.808594 275.597656 169.460938 L 283.730469 170.4375 L 254.292969 221.261719 Z M 264.375 216.699219 " fill-opacity="1" fill-rule="nonzero"/></g><g clip-path="url(#c1db108628)"><path fill="#000000" d="M 249.902344 291.792969 C 251.203125 291.792969 252.503906 290.976562 252.992188 289.675781 L 276.410156 224.683594 C 276.898438 223.378906 276.574219 222.074219 275.597656 221.261719 C 274.621094 220.445312 273.320312 220.121094 272.019531 220.609375 L 178.996094 261.65625 C 177.695312 262.148438 177.046875 263.449219 177.046875 264.753906 C 177.046875 266.054688 178.023438 267.195312 179.160156 267.683594 L 248.765625 291.628906 C 249.253906 291.792969 249.578125 291.792969 249.902344 291.792969 Z M 189.242188 264.265625 L 267.792969 229.570312 L 247.953125 284.460938 Z M 189.242188 264.265625 " fill-opacity="1" fill-rule="nonzero"/></g><path fill="#000000" d="M 253.804688 244.066406 C 252.832031 243.25 251.527344 242.925781 250.226562 243.414062 L 217.214844 257.910156 C 215.914062 258.398438 215.261719 259.703125 215.261719 261.007812 C 215.261719 262.308594 216.238281 263.449219 217.539062 263.9375 L 242.257812 272.410156 C 242.585938 272.570312 242.910156 272.570312 243.398438 272.570312 C 244.699219 272.570312 246 271.757812 246.488281 270.453125 L 254.78125 247.324219 C 255.105469 246.347656 254.78125 245.042969 253.804688 244.066406 Z M 241.285156 265.40625 L 227.460938 260.679688 L 245.835938 252.535156 Z M 241.285156 265.40625 " fill-opacity="1" fill-rule="nonzero"/><path fill="#000000" d="M 252.667969 160.015625 L 240.957031 158.546875 L 239.167969 164.902344 L 254.621094 166.855469 Z M 252.667969 160.015625 " fill-opacity="1" fill-rule="nonzero"/></svg>