<svg xmlns="http://www.w3.org/2000/svg" xmlns:xlink="http://www.w3.org/1999/xlink" width="500" zoomAndPan="magnify" viewBox="0 0 375 374.999991" height="500" preserveAspectRatio="xMidYMid meet" version="1.0"><defs><clipPath id="527952f029"><path d="M 107.390625 110.304688 L 267.890625 110.304688 L 267.890625 264.804688 L 107.390625 264.804688 Z M 107.390625 110.304688 " clip-rule="nonzero"/></clipPath></defs><rect x="-37.5" width="450" fill="#ffffff" y="-37.499999" height="449.999989" fill-opacity="1"/><rect x="-37.5" width="450" fill="#f2e9df" y="-37.499999" height="449.999989" fill-opacity="1"/><g clip-path="url(#527952f029)"><path fill="#1e2123" d="M 266 150.207031 L 253.613281 143.722656 C 253.3125 143.566406 252.992188 143.476562 252.65625 143.445312 C 252.316406 143.417969 251.984375 143.453125 251.664062 143.554688 C 251.339844 143.65625 251.046875 143.816406 250.789062 144.03125 C 250.527344 144.25 250.316406 144.507812 250.160156 144.808594 L 233.214844 177.164062 L 233.214844 150.765625 C 233.203125 150.554688 233.164062 150.347656 233.101562 150.144531 C 233.085938 150.042969 233.066406 149.9375 233.039062 149.835938 C 232.917969 149.519531 232.738281 149.238281 232.503906 148.988281 L 196.355469 111.242188 C 195.84375 110.621094 195.183594 110.308594 194.378906 110.304688 L 110.105469 110.304688 C 109.765625 110.304688 109.4375 110.371094 109.121094 110.5 C 108.804688 110.632812 108.527344 110.816406 108.285156 111.058594 C 108.046875 111.300781 107.859375 111.578125 107.730469 111.894531 C 107.597656 112.207031 107.53125 112.535156 107.53125 112.878906 L 107.53125 262.113281 C 107.53125 262.457031 107.597656 262.785156 107.730469 263.097656 C 107.859375 263.414062 108.046875 263.691406 108.285156 263.933594 C 108.527344 264.175781 108.804688 264.359375 109.121094 264.492188 C 109.4375 264.621094 109.765625 264.6875 110.105469 264.6875 L 230.664062 264.6875 C 231.003906 264.6875 231.332031 264.621094 231.648438 264.492188 C 231.964844 264.359375 232.242188 264.175781 232.484375 263.933594 C 232.722656 263.691406 232.910156 263.414062 233.039062 263.097656 C 233.171875 262.785156 233.234375 262.457031 233.234375 262.113281 L 233.234375 218.589844 C 233.234375 218.523438 233.203125 218.472656 233.199219 218.414062 L 262.492188 162.460938 L 267.089844 153.671875 C 267.25 153.367188 267.34375 153.046875 267.375 152.707031 C 267.402344 152.371094 267.367188 152.039062 267.265625 151.710938 C 267.164062 151.386719 267 151.09375 266.78125 150.835938 C 266.5625 150.574219 266.300781 150.367188 266 150.207031 Z M 196.941406 119.261719 L 224.648438 148.199219 L 196.941406 148.199219 Z M 228.089844 259.542969 L 112.679688 259.542969 L 112.679688 115.4375 L 191.804688 115.4375 L 191.804688 150.765625 C 191.804688 151.105469 191.871094 151.433594 192.003906 151.75 C 192.132812 152.066406 192.320312 152.34375 192.558594 152.585938 C 192.800781 152.824219 193.078125 153.011719 193.394531 153.140625 C 193.710938 153.273438 194.039062 153.339844 194.378906 153.339844 L 228.09375 153.339844 L 228.09375 186.984375 L 215.289062 211.925781 L 215.277344 211.96875 L 214.328125 228.855469 C 214.296875 229.367188 214.414062 229.847656 214.671875 230.292969 C 214.929688 230.734375 215.292969 231.070312 215.753906 231.296875 C 216.214844 231.523438 216.699219 231.605469 217.210938 231.539062 C 217.71875 231.476562 218.167969 231.273438 218.558594 230.9375 L 228.09375 223.496094 Z M 220.152344 216.210938 L 225.496094 219.007812 L 219.757812 223.496094 Z M 229.128906 215.128906 L 225.453125 213.207031 L 221.273438 211.015625 L 233.019531 188.609375 C 233.023438 188.597656 233.03125 188.582031 233.039062 188.570312 L 248.914062 158.238281 L 256.769531 162.359375 Z M 259.144531 157.816406 L 251.289062 153.707031 L 253.519531 149.445312 L 261.375 153.558594 Z M 198.332031 204.167969 C 198.332031 204.511719 198.265625 204.839844 198.136719 205.15625 C 198.003906 205.46875 197.820312 205.746094 197.578125 205.988281 C 197.335938 206.230469 197.058594 206.417969 196.742188 206.546875 C 196.429688 206.675781 196.101562 206.742188 195.757812 206.742188 L 155.085938 206.742188 C 154.742188 206.742188 154.414062 206.675781 154.101562 206.546875 C 153.785156 206.417969 153.507812 206.230469 153.265625 205.988281 C 153.023438 205.746094 152.839844 205.46875 152.707031 205.15625 C 152.578125 204.839844 152.511719 204.511719 152.511719 204.167969 C 152.511719 203.828125 152.578125 203.5 152.707031 203.183594 C 152.839844 202.871094 153.023438 202.589844 153.265625 202.351562 C 153.507812 202.109375 153.785156 201.921875 154.101562 201.792969 C 154.414062 201.660156 154.742188 201.597656 155.085938 201.597656 L 195.761719 201.597656 C 196.105469 201.597656 196.429688 201.664062 196.746094 201.792969 C 197.0625 201.925781 197.339844 202.109375 197.578125 202.351562 C 197.820312 202.59375 198.007812 202.871094 198.136719 203.1875 C 198.265625 203.5 198.332031 203.828125 198.332031 204.167969 Z M 140.785156 220.6875 L 127.417969 220.6875 C 127.074219 220.6875 126.746094 220.75 126.433594 220.882812 C 126.117188 221.011719 125.839844 221.199219 125.597656 221.441406 C 125.355469 221.679688 125.171875 221.960938 125.039062 222.273438 C 124.910156 222.589844 124.84375 222.917969 124.84375 223.257812 L 124.84375 236.285156 C 124.84375 236.625 124.910156 236.953125 125.039062 237.269531 C 125.171875 237.582031 125.355469 237.863281 125.597656 238.101562 C 125.839844 238.34375 126.117188 238.53125 126.433594 238.660156 C 126.746094 238.792969 127.074219 238.855469 127.417969 238.855469 L 140.785156 238.855469 C 141.125 238.855469 141.453125 238.792969 141.769531 238.660156 C 142.085938 238.53125 142.363281 238.34375 142.605469 238.101562 C 142.84375 237.863281 143.03125 237.582031 143.160156 237.269531 C 143.292969 236.953125 143.359375 236.625 143.359375 236.285156 L 143.359375 223.257812 C 143.359375 222.917969 143.292969 222.589844 143.160156 222.273438 C 143.03125 221.960938 142.84375 221.679688 142.605469 221.441406 C 142.363281 221.199219 142.085938 221.011719 141.769531 220.882812 C 141.453125 220.75 141.125 220.6875 140.785156 220.6875 Z M 138.210938 233.710938 L 129.988281 233.710938 L 129.988281 225.828125 L 138.210938 225.828125 Z M 198.328125 230.34375 C 198.328125 230.6875 198.265625 231.015625 198.132812 231.332031 C 198.003906 231.644531 197.816406 231.921875 197.578125 232.164062 C 197.335938 232.40625 197.058594 232.59375 196.742188 232.722656 C 196.425781 232.851562 196.097656 232.917969 195.757812 232.917969 L 155.085938 232.917969 C 154.742188 232.917969 154.414062 232.851562 154.101562 232.722656 C 153.785156 232.59375 153.507812 232.40625 153.265625 232.164062 C 153.023438 231.921875 152.839844 231.644531 152.707031 231.332031 C 152.578125 231.015625 152.511719 230.6875 152.511719 230.34375 C 152.511719 230.003906 152.578125 229.675781 152.707031 229.359375 C 152.839844 229.046875 153.023438 228.765625 153.265625 228.527344 C 153.507812 228.285156 153.785156 228.097656 154.101562 227.96875 C 154.414062 227.835938 154.742188 227.773438 155.085938 227.773438 L 195.761719 227.773438 C 196.101562 227.773438 196.429688 227.839844 196.746094 227.96875 C 197.058594 228.097656 197.335938 228.285156 197.578125 228.527344 C 197.820312 228.765625 198.003906 229.042969 198.136719 229.359375 C 198.265625 229.671875 198.332031 230 198.332031 230.339844 Z M 140.785156 194.644531 L 127.417969 194.644531 C 127.074219 194.644531 126.746094 194.710938 126.433594 194.839844 C 126.117188 194.972656 125.839844 195.15625 125.597656 195.398438 C 125.355469 195.640625 125.171875 195.917969 125.039062 196.234375 C 124.910156 196.550781 124.84375 196.878906 124.84375 197.21875 L 124.84375 210.242188 C 124.84375 210.582031 124.910156 210.910156 125.039062 211.226562 C 125.171875 211.542969 125.355469 211.820312 125.597656 212.0625 C 125.839844 212.300781 126.117188 212.488281 126.433594 212.621094 C 126.746094 212.75 127.074219 212.816406 127.417969 212.816406 L 140.785156 212.816406 C 141.125 212.816406 141.453125 212.75 141.769531 212.621094 C 142.085938 212.488281 142.363281 212.300781 142.605469 212.0625 C 142.84375 211.820312 143.03125 211.542969 143.160156 211.226562 C 143.292969 210.910156 143.359375 210.582031 143.359375 210.242188 L 143.359375 197.214844 C 143.355469 196.875 143.292969 196.546875 143.160156 196.230469 C 143.03125 195.917969 142.84375 195.636719 142.601562 195.398438 C 142.363281 195.15625 142.082031 194.972656 141.769531 194.839844 C 141.453125 194.710938 141.125 194.644531 140.785156 194.644531 Z M 138.210938 207.667969 L 129.988281 207.667969 L 129.988281 199.785156 L 138.210938 199.785156 Z M 155.5625 179.320312 C 155.820312 177.757812 156.078125 176.214844 156.355469 174.652344 C 156.410156 174.464844 156.484375 174.285156 156.578125 174.113281 C 156.671875 173.941406 156.785156 173.78125 156.914062 173.636719 C 157.042969 173.488281 157.1875 173.359375 157.347656 173.246094 C 157.503906 173.132812 157.675781 173.035156 157.855469 172.957031 C 158.035156 172.882812 158.21875 172.828125 158.414062 172.789062 C 158.605469 172.753906 158.800781 172.742188 158.996094 172.75 C 159.191406 172.757812 159.382812 172.785156 159.570312 172.835938 C 159.761719 172.886719 159.941406 172.957031 160.113281 173.046875 C 161.382812 173.917969 162.609375 174.828125 163.855469 175.699219 C 165.617188 176.925781 166.210938 176.886719 167.714844 175.441406 C 168.921875 174.273438 170.089844 173.066406 171.296875 171.898438 C 171.558594 171.703125 171.769531 171.464844 171.929688 171.179688 C 172.085938 170.898438 172.183594 170.59375 172.210938 170.269531 C 172.242188 169.945312 172.207031 169.625 172.101562 169.316406 C 171.996094 169.007812 171.835938 168.734375 171.613281 168.496094 C 170.664062 167.167969 169.714844 165.863281 168.785156 164.515625 C 168.691406 164.339844 168.617188 164.152344 168.566406 163.960938 C 168.515625 163.765625 168.484375 163.570312 168.476562 163.367188 C 168.472656 163.167969 168.488281 162.96875 168.523438 162.773438 C 168.5625 162.574219 168.621094 162.382812 168.703125 162.199219 C 168.785156 162.015625 168.882812 161.84375 169.003906 161.683594 C 169.125 161.523438 169.261719 161.378906 169.414062 161.246094 C 169.566406 161.117188 169.730469 161.003906 169.90625 160.914062 C 170.085938 160.820312 170.273438 160.746094 170.464844 160.695312 C 172.070312 160.441406 173.671875 160.125 175.296875 159.867188 C 175.59375 159.863281 175.875 159.796875 176.148438 159.675781 C 176.417969 159.550781 176.652344 159.378906 176.847656 159.15625 C 177.046875 158.933594 177.191406 158.679688 177.28125 158.398438 C 177.375 158.117188 177.402344 157.824219 177.375 157.53125 C 177.355469 155.648438 177.375 153.75 177.414062 151.871094 C 177.449219 151.558594 177.421875 151.257812 177.328125 150.957031 C 177.238281 150.660156 177.089844 150.394531 176.886719 150.15625 C 176.683594 149.921875 176.441406 149.734375 176.164062 149.597656 C 175.882812 149.460938 175.585938 149.386719 175.277344 149.375 C 173.652344 149.117188 172.050781 148.839844 170.445312 148.542969 C 170.074219 148.417969 169.742188 148.222656 169.457031 147.957031 C 169.167969 147.691406 168.949219 147.375 168.796875 147.011719 C 168.644531 146.652344 168.574219 146.273438 168.585938 145.882812 C 168.597656 145.488281 168.691406 145.117188 168.863281 144.765625 C 169.792969 143.417969 170.722656 142.070312 171.710938 140.785156 C 172.144531 140.292969 172.363281 139.71875 172.367188 139.0625 C 172.269531 138.394531 171.96875 137.839844 171.457031 137.402344 C 167.121094 132.988281 166.707031 132.867188 166.25 132.867188 C 164.800781 133.023438 163.53125 133.59375 162.449219 134.570312 C 161.320312 135.382812 161.0625 135.5 160.449219 135.996094 C 160.273438 136.105469 160.085938 136.191406 159.890625 136.253906 C 159.691406 136.316406 159.488281 136.355469 159.28125 136.371094 C 159.074219 136.386719 158.871094 136.378906 158.664062 136.347656 C 158.460938 136.3125 158.261719 136.257812 158.070312 136.175781 C 157.878906 136.097656 157.699219 135.996094 157.535156 135.871094 C 157.367188 135.75 157.214844 135.609375 157.082031 135.449219 C 156.949219 135.292969 156.835938 135.121094 156.742188 134.933594 C 156.648438 134.75 156.578125 134.554688 156.53125 134.351562 C 156.292969 132.789062 156.015625 131.226562 155.800781 129.683594 C 155.789062 129.367188 155.71875 129.070312 155.585938 128.785156 C 155.449219 128.503906 155.265625 128.257812 155.027344 128.054688 C 154.789062 127.847656 154.523438 127.699219 154.222656 127.609375 C 153.921875 127.515625 153.617188 127.488281 153.304688 127.523438 C 151.523438 127.542969 149.742188 127.503906 147.960938 127.523438 C 146.121094 127.542969 145.546875 128.058594 145.210938 129.898438 C 144.953125 131.402344 144.714844 132.90625 144.417969 134.414062 C 144.285156 134.78125 144.082031 135.109375 143.808594 135.390625 C 143.535156 135.671875 143.21875 135.890625 142.855469 136.039062 C 142.492188 136.1875 142.113281 136.257812 141.71875 136.246094 C 141.328125 136.234375 140.953125 136.144531 140.597656 135.976562 C 139.332031 135.105469 138.125 134.175781 136.878906 133.304688 C 135.195312 132.117188 134.5625 132.15625 133.136719 133.523438 C 131.890625 134.730469 130.683594 135.976562 129.4375 137.183594 C 129.191406 137.378906 128.996094 137.609375 128.847656 137.882812 C 128.699219 138.15625 128.609375 138.449219 128.578125 138.757812 C 128.550781 139.070312 128.582031 139.371094 128.675781 139.667969 C 128.769531 139.964844 128.917969 140.230469 129.117188 140.46875 C 130.050781 141.816406 131 143.140625 131.890625 144.507812 C 131.984375 144.691406 132.054688 144.886719 132.101562 145.085938 C 132.152344 145.289062 132.179688 145.496094 132.179688 145.703125 C 132.183594 145.910156 132.160156 146.113281 132.117188 146.316406 C 132.074219 146.519531 132.007812 146.714844 131.917969 146.902344 C 131.828125 147.09375 131.722656 147.265625 131.59375 147.429688 C 131.464844 147.59375 131.320312 147.742188 131.15625 147.871094 C 130.996094 148 130.820312 148.109375 130.632812 148.199219 C 130.445312 148.292969 130.25 148.359375 130.050781 148.40625 C 128.484375 148.625 126.921875 148.878906 125.378906 149.136719 C 125.082031 149.148438 124.796875 149.222656 124.53125 149.351562 C 124.261719 149.484375 124.035156 149.664062 123.84375 149.890625 C 123.652344 150.117188 123.515625 150.375 123.429688 150.660156 C 123.347656 150.949219 123.328125 151.238281 123.367188 151.53125 C 123.386719 153.375 123.367188 155.214844 123.328125 157.054688 C 123.285156 157.378906 123.308594 157.695312 123.398438 158.007812 C 123.492188 158.316406 123.640625 158.597656 123.847656 158.847656 C 124.058594 159.09375 124.308594 159.289062 124.601562 159.433594 C 124.890625 159.578125 125.199219 159.65625 125.523438 159.667969 C 127.070312 159.925781 128.652344 160.144531 130.15625 160.539062 C 130.785156 160.785156 131.28125 161.191406 131.640625 161.765625 C 131.835938 162.019531 131.972656 162.296875 132.058594 162.605469 C 132.140625 162.910156 132.164062 163.222656 132.128906 163.539062 C 132.09375 163.855469 131.996094 164.152344 131.84375 164.429688 C 131.691406 164.710938 131.492188 164.949219 131.246094 165.152344 C 130.335938 166.160156 129.621094 167.386719 128.808594 168.476562 C 128.628906 168.675781 128.488281 168.90625 128.398438 169.164062 C 128.308594 169.421875 128.273438 169.6875 128.289062 169.957031 C 128.304688 170.230469 128.375 170.488281 128.496094 170.730469 C 128.617188 170.976562 128.78125 171.1875 128.988281 171.367188 C 130.273438 172.691406 131.5625 173.996094 132.847656 175.304688 C 132.941406 175.449219 133.054688 175.585938 133.179688 175.707031 C 133.304688 175.828125 133.441406 175.9375 133.589844 176.027344 C 133.738281 176.117188 133.898438 176.191406 134.0625 176.246094 C 134.230469 176.304688 134.398438 176.339844 134.574219 176.355469 C 134.746094 176.375 134.921875 176.371094 135.09375 176.347656 C 135.269531 176.328125 135.4375 176.285156 135.601562 176.226562 C 135.765625 176.164062 135.921875 176.085938 136.066406 175.992188 C 136.214844 175.898438 136.347656 175.785156 136.46875 175.660156 C 137.777344 174.769531 139.0625 173.839844 140.367188 172.96875 C 140.550781 172.882812 140.734375 172.8125 140.929688 172.765625 C 141.125 172.71875 141.324219 172.695312 141.523438 172.691406 C 141.722656 172.6875 141.921875 172.703125 142.117188 172.742188 C 142.3125 172.78125 142.503906 172.839844 142.6875 172.921875 C 142.871094 173 143.042969 173.101562 143.203125 173.21875 C 143.367188 173.335938 143.515625 173.46875 143.648438 173.617188 C 143.78125 173.765625 143.894531 173.929688 143.992188 174.101562 C 144.09375 174.277344 144.171875 174.460938 144.230469 174.652344 C 144.503906 176.3125 144.824219 177.957031 145.097656 179.617188 C 145.117188 179.902344 145.1875 180.171875 145.316406 180.425781 C 145.441406 180.683594 145.613281 180.902344 145.832031 181.085938 C 146.046875 181.273438 146.292969 181.40625 146.5625 181.492188 C 146.835938 181.578125 147.113281 181.605469 147.394531 181.578125 C 149.277344 181.578125 151.175781 181.597656 153.054688 181.578125 C 154.691406 181.558594 155.285156 180.984375 155.5625 179.320312 Z M 151.601562 177.402344 L 148.972656 177.402344 C 148.65625 175.679688 148.277344 173.9375 148.039062 172.195312 C 147.996094 171.648438 147.792969 171.164062 147.429688 170.746094 C 147.070312 170.332031 146.617188 170.0625 146.082031 169.941406 C 144.871094 169.566406 143.703125 169.085938 142.578125 168.496094 C 142.320312 168.328125 142.042969 168.207031 141.746094 168.128906 C 141.449219 168.050781 141.148438 168.019531 140.84375 168.035156 C 140.539062 168.054688 140.242188 168.121094 139.957031 168.230469 C 139.671875 168.34375 139.410156 168.496094 139.171875 168.691406 C 137.867188 169.664062 136.5 170.535156 135.097656 171.523438 C 134.523438 170.773438 134.007812 170.097656 133.394531 169.285156 C 134.125 168.257812 135.058594 166.851562 136.085938 165.546875 C 136.285156 165.328125 136.441406 165.085938 136.558594 164.816406 C 136.679688 164.546875 136.75 164.261719 136.773438 163.96875 C 136.800781 163.675781 136.777344 163.386719 136.707031 163.101562 C 136.636719 162.816406 136.519531 162.546875 136.363281 162.300781 C 135.742188 161.128906 135.242188 159.90625 134.859375 158.636719 C 134.742188 158.101562 134.476562 157.652344 134.0625 157.289062 C 133.648438 156.929688 133.167969 156.726562 132.621094 156.679688 C 130.921875 156.421875 129.238281 156.046875 127.496094 155.691406 L 127.496094 153.058594 C 129.160156 152.78125 130.800781 152.445312 132.445312 152.246094 C 132.738281 152.234375 133.023438 152.175781 133.296875 152.066406 C 133.570312 151.960938 133.816406 151.8125 134.042969 151.621094 C 134.265625 151.433594 134.453125 151.210938 134.605469 150.957031 C 134.753906 150.707031 134.859375 150.433594 134.917969 150.148438 C 135.320312 148.882812 135.84375 147.667969 136.480469 146.503906 C 136.769531 146.035156 136.898438 145.527344 136.871094 144.976562 C 136.839844 144.425781 136.660156 143.933594 136.324219 143.496094 C 135.628906 142.546875 135.058594 141.519531 134.304688 140.628906 C 133.453125 139.597656 133.414062 138.785156 134.5625 138.015625 C 134.820312 137.808594 135.066406 137.582031 135.292969 137.339844 C 136.679688 138.332031 138.066406 139.261719 139.390625 140.289062 C 139.613281 140.484375 139.859375 140.636719 140.132812 140.746094 C 140.40625 140.855469 140.6875 140.921875 140.980469 140.9375 C 141.273438 140.957031 141.5625 140.925781 141.847656 140.851562 C 142.128906 140.773438 142.394531 140.652344 142.636719 140.488281 C 143.757812 139.878906 144.933594 139.40625 146.160156 139.0625 C 146.4375 139.011719 146.699219 138.917969 146.941406 138.777344 C 147.1875 138.640625 147.402344 138.46875 147.59375 138.257812 C 147.78125 138.046875 147.929688 137.816406 148.039062 137.554688 C 148.152344 137.296875 148.214844 137.027344 148.238281 136.746094 C 148.515625 135.085938 148.851562 133.441406 149.1875 131.699219 L 151.867188 131.699219 C 152.164062 133.5 152.503906 135.242188 152.757812 137.003906 C 152.8125 137.496094 152.996094 137.933594 153.320312 138.308594 C 153.640625 138.683594 154.042969 138.9375 154.519531 139.0625 C 155.820312 139.492188 157.082031 140.019531 158.300781 140.648438 C 158.550781 140.804688 158.816406 140.917969 159.105469 140.988281 C 159.390625 141.058594 159.679688 141.082031 159.972656 141.0625 C 160.265625 141.039062 160.550781 140.972656 160.820312 140.863281 C 161.09375 140.75 161.34375 140.601562 161.566406 140.410156 C 162.855469 139.421875 164.199219 138.507812 165.703125 137.441406 C 166.277344 138.171875 166.8125 138.847656 167.425781 139.597656 C 166.554688 140.804688 165.644531 142.210938 164.613281 143.515625 C 164.410156 143.746094 164.25 144.003906 164.132812 144.289062 C 164.015625 144.570312 163.949219 144.867188 163.929688 145.171875 C 163.910156 145.476562 163.9375 145.78125 164.019531 146.074219 C 164.097656 146.371094 164.226562 146.648438 164.398438 146.902344 C 164.992188 148.035156 165.46875 149.214844 165.824219 150.445312 C 165.875 150.707031 165.96875 150.953125 166.101562 151.183594 C 166.238281 151.414062 166.402344 151.617188 166.601562 151.792969 C 166.804688 151.972656 167.027344 152.113281 167.273438 152.214844 C 167.515625 152.320312 167.773438 152.382812 168.039062 152.402344 C 169.761719 152.640625 171.445312 152.996094 173.226562 153.335938 L 173.226562 155.945312 C 171.5625 156.242188 169.878906 156.621094 168.179688 156.835938 C 167.886719 156.851562 167.601562 156.917969 167.332031 157.027344 C 167.058594 157.136719 166.8125 157.285156 166.589844 157.476562 C 166.367188 157.667969 166.183594 157.890625 166.035156 158.144531 C 165.886719 158.398438 165.78125 158.667969 165.722656 158.957031 C 165.367188 160.128906 164.890625 161.25 164.296875 162.320312 C 164.128906 162.574219 164 162.851562 163.921875 163.148438 C 163.839844 163.445312 163.808594 163.75 163.824219 164.054688 C 163.84375 164.363281 163.910156 164.660156 164.023438 164.945312 C 164.140625 165.230469 164.296875 165.492188 164.496094 165.722656 C 165.484375 167.011719 166.375 168.375 167.484375 169.941406 C 166.773438 170.476562 166.097656 170.988281 165.308594 171.582031 C 164.082031 170.710938 162.636719 169.742188 161.269531 168.714844 C 160.828125 168.347656 160.316406 168.140625 159.746094 168.097656 C 159.171875 168.054688 158.636719 168.179688 158.144531 168.476562 C 156.972656 169.101562 155.75 169.609375 154.480469 170 C 153.945312 170.109375 153.492188 170.371094 153.125 170.78125 C 152.761719 171.191406 152.550781 171.667969 152.503906 172.214844 C 152.238281 173.917969 151.921875 175.621094 151.601562 177.402344 Z M 161.222656 154.785156 C 161.230469 154.0625 161.164062 153.34375 161.03125 152.636719 C 160.894531 151.925781 160.691406 151.234375 160.421875 150.566406 C 160.152344 149.894531 159.816406 149.257812 159.417969 148.652344 C 159.023438 148.050781 158.570312 147.488281 158.0625 146.976562 C 157.554688 146.460938 157.003906 146 156.40625 145.59375 C 155.808594 145.1875 155.175781 144.84375 154.507812 144.5625 C 153.84375 144.285156 153.15625 144.070312 152.449219 143.925781 C 151.738281 143.78125 151.023438 143.707031 150.300781 143.699219 L 150.226562 143.699219 C 149.515625 143.707031 148.8125 143.78125 148.113281 143.921875 C 147.417969 144.066406 146.742188 144.273438 146.085938 144.546875 C 145.429688 144.824219 144.804688 145.160156 144.214844 145.554688 C 143.625 145.949219 143.078125 146.398438 142.574219 146.902344 C 142.070312 147.40625 141.621094 147.949219 141.222656 148.539062 C 140.828125 149.132812 140.492188 149.753906 140.214844 150.410156 C 139.941406 151.066406 139.730469 151.742188 139.589844 152.4375 C 139.445312 153.132812 139.371094 153.839844 139.363281 154.550781 C 139.355469 155.261719 139.417969 155.964844 139.550781 156.664062 C 139.679688 157.363281 139.878906 158.042969 140.140625 158.703125 C 140.40625 159.363281 140.730469 159.992188 141.117188 160.589844 C 141.5 161.1875 141.941406 161.742188 142.433594 162.253906 C 142.929688 162.765625 143.46875 163.222656 144.050781 163.628906 C 144.636719 164.035156 145.253906 164.382812 145.902344 164.667969 C 146.554688 164.957031 147.226562 165.175781 147.921875 165.332031 C 148.613281 165.488281 149.316406 165.574219 150.027344 165.589844 L 150.257812 165.589844 C 150.972656 165.59375 151.675781 165.523438 152.378906 165.386719 C 153.078125 165.25 153.757812 165.042969 154.417969 164.773438 C 155.078125 164.503906 155.703125 164.171875 156.300781 163.78125 C 156.894531 163.386719 157.445312 162.941406 157.953125 162.4375 C 158.460938 161.9375 158.917969 161.394531 159.320312 160.804688 C 159.71875 160.214844 160.0625 159.59375 160.339844 158.9375 C 160.621094 158.28125 160.835938 157.601562 160.980469 156.90625 C 161.128906 156.207031 161.207031 155.503906 161.21875 154.789062 Z M 150.085938 160.421875 C 149.71875 160.40625 149.351562 160.359375 148.992188 160.277344 C 148.628906 160.191406 148.28125 160.074219 147.941406 159.925781 C 147.601562 159.777344 147.28125 159.59375 146.976562 159.382812 C 146.675781 159.171875 146.394531 158.933594 146.136719 158.667969 C 145.878906 158.402344 145.648438 158.113281 145.445312 157.804688 C 145.242188 157.496094 145.070312 157.167969 144.929688 156.828125 C 144.789062 156.484375 144.679688 156.132812 144.609375 155.769531 C 144.535156 155.40625 144.496094 155.039062 144.492188 154.667969 C 144.496094 153.878906 144.652344 153.117188 144.960938 152.390625 C 145.269531 151.660156 145.707031 151.023438 146.273438 150.472656 C 146.863281 149.925781 147.535156 149.511719 148.292969 149.238281 C 149.046875 148.964844 149.828125 148.847656 150.628906 148.890625 C 151.003906 148.914062 151.371094 148.976562 151.730469 149.074219 C 152.089844 149.171875 152.4375 149.300781 152.773438 149.46875 C 153.109375 149.632812 153.425781 149.828125 153.722656 150.054688 C 154.023438 150.28125 154.292969 150.535156 154.542969 150.8125 C 154.792969 151.09375 155.011719 151.394531 155.199219 151.714844 C 155.390625 152.035156 155.546875 152.375 155.671875 152.726562 C 155.796875 153.078125 155.886719 153.441406 155.941406 153.808594 C 155.996094 154.179688 156.015625 154.550781 155.996094 154.925781 C 155.980469 155.296875 155.925781 155.664062 155.835938 156.027344 C 155.746094 156.390625 155.625 156.742188 155.46875 157.082031 C 155.308594 157.421875 155.121094 157.742188 154.902344 158.042969 C 154.683594 158.347656 154.4375 158.625 154.164062 158.878906 C 153.890625 159.136719 153.59375 159.363281 153.277344 159.558594 C 152.957031 159.757812 152.625 159.921875 152.277344 160.054688 C 151.925781 160.1875 151.566406 160.285156 151.199219 160.347656 C 150.832031 160.410156 150.460938 160.4375 150.085938 160.429688 Z M 150.085938 160.421875 " fill-opacity="1" fill-rule="nonzero"/></g></svg>