<svg xmlns="http://www.w3.org/2000/svg" xmlns:xlink="http://www.w3.org/1999/xlink" width="500" zoomAndPan="magnify" viewBox="0 0 375 374.999991" height="500" preserveAspectRatio="xMidYMid meet" version="1.0"><defs><clipPath id="d842895f96"><path d="M 107.652344 83.292969 L 267.402344 83.292969 L 267.402344 291.792969 L 107.652344 291.792969 Z M 107.652344 83.292969 " clip-rule="nonzero"/></clipPath></defs><rect x="-37.5" width="450" fill="#ffffff" y="-37.499999" height="449.999989" fill-opacity="1"/><rect x="-37.5" width="450" fill="#f2e9df" y="-37.499999" height="449.999989" fill-opacity="1"/><g clip-path="url(#d842895f96)"><path fill="#000000" d="M 254.519531 232.460938 C 254.914062 233.984375 254 235.539062 252.476562 235.9375 L 236.910156 239.972656 C 236.152344 242.214844 235.242188 244.410156 234.191406 246.527344 L 242.347656 260.402344 C 243.007812 261.519531 242.824219 262.941406 241.90625 263.859375 L 226.679688 279.078125 C 225.765625 279.992188 224.34375 280.175781 223.222656 279.519531 L 209.355469 271.367188 C 207.226562 272.414062 205.035156 273.324219 202.808594 274.085938 L 198.757812 289.660156 C 198.433594 290.917969 197.300781 291.792969 196 291.792969 L 174.476562 291.792969 C 173.179688 291.792969 172.046875 290.917969 171.71875 289.660156 L 167.671875 274.085938 C 165.441406 273.324219 163.25 272.414062 161.132812 271.367188 L 147.253906 279.519531 C 146.136719 280.175781 144.714844 279.992188 143.796875 279.074219 L 128.570312 263.859375 C 127.652344 262.941406 127.472656 261.519531 128.128906 260.398438 L 136.285156 246.523438 C 135.253906 244.433594 134.34375 242.238281 133.570312 239.972656 L 118 235.933594 C 116.476562 235.539062 115.5625 233.984375 115.957031 232.460938 C 116.351562 230.9375 117.90625 230.023438 119.429688 230.417969 L 136.515625 234.847656 C 137.472656 235.097656 138.230469 235.824219 138.523438 236.765625 C 139.445312 239.761719 140.632812 242.625 142.050781 245.273438 C 142.519531 246.148438 142.496094 247.207031 141.992188 248.0625 L 134.160156 261.386719 L 146.269531 273.488281 L 159.597656 265.664062 C 160.449219 265.164062 161.5 265.140625 162.375 265.601562 C 165.089844 267.042969 167.949219 268.230469 170.878906 269.136719 C 171.820312 269.425781 172.546875 270.1875 172.792969 271.140625 L 176.679688 286.09375 L 193.800781 286.09375 L 197.6875 271.140625 C 197.933594 270.1875 198.660156 269.425781 199.601562 269.136719 C 202.523438 268.234375 205.386719 267.042969 208.121094 265.601562 C 208.996094 265.140625 210.042969 265.164062 210.894531 265.664062 L 224.210938 273.488281 L 236.320312 261.386719 L 228.488281 248.0625 C 227.984375 247.207031 227.960938 246.148438 228.429688 245.273438 C 229.871094 242.574219 231.058594 239.714844 231.953125 236.777344 C 232.246094 235.828125 233.003906 235.097656 233.964844 234.847656 L 251.050781 230.417969 C 252.570312 230.023438 254.125 230.941406 254.519531 232.460938 Z M 185.238281 257.335938 C 201.121094 257.335938 215.015625 246.617188 219.027344 231.265625 C 219.421875 229.746094 218.511719 228.1875 216.988281 227.789062 C 215.46875 227.394531 213.910156 228.304688 213.511719 229.828125 C 210.15625 242.667969 198.53125 251.636719 185.238281 251.636719 C 171.957031 251.636719 160.332031 242.667969 156.964844 229.824219 C 156.566406 228.300781 155.007812 227.390625 153.488281 227.789062 C 151.964844 228.191406 151.054688 229.746094 151.453125 231.269531 C 155.476562 246.617188 169.371094 257.335938 185.238281 257.335938 Z M 267.371094 222.402344 C 267.371094 223.976562 266.09375 225.253906 264.519531 225.253906 L 110.574219 225.253906 C 109 225.253906 107.722656 223.976562 107.722656 222.402344 C 107.722656 220.828125 109 219.554688 110.574219 219.554688 L 126.019531 219.554688 L 126.019531 143.609375 C 126.019531 142.320312 126.882812 141.191406 128.128906 140.859375 L 184.699219 125.691406 L 184.699219 102.011719 C 184.699219 100.722656 185.5625 99.59375 186.808594 99.257812 L 245.476562 83.511719 C 246.332031 83.28125 247.246094 83.464844 247.949219 84.003906 C 248.652344 84.542969 249.0625 85.378906 249.0625 86.265625 L 249.0625 219.554688 L 264.519531 219.554688 C 266.09375 219.554688 267.371094 220.828125 267.371094 222.402344 Z M 190.394531 104.195312 L 190.394531 219.554688 L 197.570312 219.554688 L 197.570312 187.703125 C 197.570312 186.128906 198.847656 184.851562 200.417969 184.851562 L 233.339844 184.851562 C 234.914062 184.851562 236.191406 186.128906 236.191406 187.703125 L 236.191406 219.554688 L 243.363281 219.554688 L 243.363281 89.980469 Z M 230.492188 190.550781 L 203.269531 190.550781 L 203.269531 193.515625 L 230.492188 193.515625 Z M 203.269531 219.554688 L 214.03125 219.554688 L 214.03125 199.214844 L 203.269531 199.214844 Z M 219.730469 219.554688 L 230.492188 219.554688 L 230.492188 199.214844 L 219.730469 199.214844 Z M 131.714844 219.554688 L 184.699219 219.554688 L 184.699219 131.589844 L 131.714844 145.796875 Z M 218.390625 128.039062 L 218.390625 115.96875 C 218.390625 114.398438 219.667969 113.121094 221.242188 113.121094 L 233.339844 113.121094 C 234.914062 113.121094 236.191406 114.398438 236.191406 115.96875 L 236.191406 128.039062 C 236.191406 129.609375 234.914062 130.886719 233.339844 130.886719 L 221.242188 130.886719 C 219.667969 130.886719 218.390625 129.613281 218.390625 128.039062 Z M 224.089844 125.1875 L 230.492188 125.1875 L 230.492188 118.820312 L 224.089844 118.820312 Z M 197.570312 128.039062 L 197.570312 115.96875 C 197.570312 114.398438 198.847656 113.121094 200.417969 113.121094 L 212.507812 113.121094 C 214.082031 113.121094 215.359375 114.398438 215.359375 115.96875 L 215.359375 128.039062 C 215.359375 129.609375 214.082031 130.886719 212.507812 130.886719 L 200.417969 130.886719 C 198.847656 130.886719 197.570312 129.613281 197.570312 128.039062 Z M 203.269531 125.1875 L 209.660156 125.1875 L 209.660156 118.820312 L 203.269531 118.820312 Z M 218.390625 148.835938 L 218.390625 136.769531 C 218.390625 135.195312 219.667969 133.921875 221.242188 133.921875 L 233.339844 133.921875 C 234.914062 133.921875 236.191406 135.195312 236.191406 136.769531 L 236.191406 148.835938 C 236.191406 150.410156 234.914062 151.6875 233.339844 151.6875 L 221.242188 151.6875 C 219.667969 151.6875 218.390625 150.410156 218.390625 148.835938 Z M 224.089844 145.988281 L 230.492188 145.988281 L 230.492188 139.621094 L 224.089844 139.621094 Z M 197.570312 148.835938 L 197.570312 136.769531 C 197.570312 135.195312 198.847656 133.921875 200.417969 133.921875 L 212.507812 133.921875 C 214.082031 133.921875 215.359375 135.195312 215.359375 136.769531 L 215.359375 148.835938 C 215.359375 150.410156 214.082031 151.6875 212.507812 151.6875 L 200.417969 151.6875 C 198.847656 151.6875 197.570312 150.410156 197.570312 148.835938 Z M 203.269531 145.988281 L 209.660156 145.988281 L 209.660156 139.621094 L 203.269531 139.621094 Z M 197.570312 169.636719 L 197.570312 157.570312 C 197.570312 155.996094 198.847656 154.71875 200.417969 154.71875 L 212.507812 154.71875 C 214.082031 154.71875 215.359375 155.996094 215.359375 157.570312 L 215.359375 169.636719 C 215.359375 171.210938 214.082031 172.484375 212.507812 172.484375 L 200.417969 172.484375 C 198.847656 172.484375 197.570312 171.210938 197.570312 169.636719 Z M 203.269531 166.785156 L 209.660156 166.785156 L 209.660156 160.417969 L 203.269531 160.417969 Z M 218.390625 169.636719 L 218.390625 157.570312 C 218.390625 155.996094 219.667969 154.71875 221.242188 154.71875 L 233.339844 154.71875 C 234.914062 154.71875 236.191406 155.996094 236.191406 157.570312 L 236.191406 169.636719 C 236.191406 171.210938 234.914062 172.484375 233.339844 172.484375 L 221.242188 172.484375 C 219.667969 172.484375 218.390625 171.210938 218.390625 169.636719 Z M 224.089844 166.785156 L 230.492188 166.785156 L 230.492188 160.417969 L 224.089844 160.417969 Z M 177.511719 157.570312 L 177.511719 169.636719 C 177.511719 171.210938 176.234375 172.484375 174.664062 172.484375 L 141.753906 172.484375 C 140.179688 172.484375 138.902344 171.210938 138.902344 169.636719 L 138.902344 157.570312 C 138.902344 155.996094 140.179688 154.71875 141.753906 154.71875 L 174.660156 154.71875 C 176.234375 154.71875 177.511719 155.996094 177.511719 157.570312 Z M 171.8125 160.417969 L 144.601562 160.417969 L 144.601562 166.785156 L 171.8125 166.785156 Z M 177.511719 178.371094 L 177.511719 190.4375 C 177.511719 192.007812 176.234375 193.285156 174.664062 193.285156 L 141.753906 193.285156 C 140.179688 193.285156 138.902344 192.011719 138.902344 190.4375 L 138.902344 178.371094 C 138.902344 176.796875 140.179688 175.519531 141.753906 175.519531 L 174.660156 175.519531 C 176.234375 175.519531 177.511719 176.796875 177.511719 178.371094 Z M 171.8125 181.21875 L 144.601562 181.21875 L 144.601562 187.585938 L 171.8125 187.585938 Z M 177.511719 199.167969 L 177.511719 211.234375 C 177.511719 212.808594 176.234375 214.085938 174.664062 214.085938 L 141.753906 214.085938 C 140.179688 214.085938 138.902344 212.808594 138.902344 211.234375 L 138.902344 199.167969 C 138.902344 197.59375 140.179688 196.320312 141.753906 196.320312 L 174.660156 196.320312 C 176.234375 196.320312 177.511719 197.59375 177.511719 199.167969 Z M 171.8125 202.019531 L 144.601562 202.019531 L 144.601562 208.386719 L 171.8125 208.386719 Z M 171.8125 202.019531 " fill-opacity="1" fill-rule="nonzero"/></g></svg>